# xmcd CD database file
#
# Track frame offsets:
#	150
#	7470
#	17772
#	29261
#	39534
#	50464
#	59366
#	70929
#	79524
#	89775
#	99495
#
# Disc length: 1453 seconds
#
# Revision: 0
# Processed by: cddbd v1.5.1PL0 Copyright (c) Steve Scherf et al.
# Submitted via: CDex 1.51
#
DISCID=9005ab0b
DTITLE=Buck Owens - Country Music Legend
DYEAR=1900
DGENRE=Country
TTITLE0=Down On The Corner  Of Love
TTITLE1=Excuse Me
TTITLE2=Foolin' Around
TTITLE3=Under The Influence Of Love
TTITLE4=Above And Beyond
TTITLE5=It Don't Show On Me
TTITLE6=Loose Talk
TTITLE7=Righjt After The Dance
TTITLE8=Sweethearts In Heaven
TTITLE9=The House Down The Block
TTITLE10=There Goes My Love
EXTD=
EXTT0=
EXTT1=
EXTT2=
EXTT3=
EXTT4=
EXTT5=
EXTT6=
EXTT7=
EXTT8=
EXTT9=
EXTT10=
PLAYORDER=
